<svg width="44" height="44" viewBox="0 0 44 44" fill="none" xmlns="http://www.w3.org/2000/svg">
<path d="M21.999 13.75C23.374 8.3222 28.5672 5.55071 39.874 5.50001C40.0548 5.49933 40.2339 5.53443 40.401 5.60329C40.5682 5.67215 40.72 5.7734 40.8478 5.90122C40.9756 6.02903 41.0769 6.18088 41.1457 6.34801C41.2146 6.51514 41.2497 6.69425 41.249 6.87501V31.625C41.249 31.9897 41.1042 32.3394 40.8463 32.5973C40.5884 32.8551 40.2387 33 39.874 33C28.874 33 24.6244 35.2181 21.999 38.5C19.3891 35.2344 15.124 33 4.12403 33C3.27497 33 2.74903 32.3082 2.74903 31.4592V6.87501C2.74835 6.69425 2.78345 6.51514 2.85231 6.34801C2.92117 6.18088 3.02242 6.02903 3.15024 5.90122C3.27806 5.7734 3.42991 5.67215 3.59704 5.60329C3.76417 5.53443 3.94327 5.49933 4.12403 5.50001C15.4308 5.55071 20.624 8.3222 21.999 13.75Z" stroke="white" stroke-width="4" stroke-linecap="round" stroke-linejoin="round"/>
<path d="M21.999 13.749V38.499" stroke="white" stroke-width="4" stroke-linecap="round" stroke-linejoin="round"/>
</svg>
