<svg width="50" height="50" viewBox="0 0 50 50" fill="none" xmlns="http://www.w3.org/2000/svg">
  <path
    d="M45.3135 6.49463C45.3012 5.20979 44.7829 3.9816 43.871 3.07634C42.9592 2.17108 41.7273 1.66172 40.4424 1.65869L9.53613 1.56104C8.25256 1.56129 7.02146 2.0705 6.11274 2.97702C5.20402 3.88354 4.69184 5.11341 4.68848 6.39697V38.2798C4.68848 40.9458 6.86426 42.9673 9.53613 42.9673H35.9385L34.6689 38.6704L45.3135 48.436V6.49463ZM31.7051 32.2065C31.7051 32.2065 30.8535 31.1919 30.1426 30.3198C33.2422 29.4468 34.4248 27.5376 34.4248 27.5376C33.5735 28.1023 32.6611 28.5692 31.7051 28.9292C30.6012 29.3875 29.4519 29.7277 28.2764 29.9439C26.2509 30.3159 24.1739 30.3079 22.1514 29.9204C20.9617 29.6995 19.7973 29.3592 18.6758 28.9048C18.0825 28.6776 17.5056 28.4097 16.9492 28.103C16.8779 28.0562 16.8076 28.0327 16.7363 27.9849C16.6885 27.9614 16.665 27.938 16.6387 27.938C16.2129 27.7017 15.9766 27.5366 15.9766 27.5366C15.9766 27.5366 17.1113 29.4009 20.1152 30.2964C19.4053 31.1929 18.5303 32.231 18.5303 32.231C13.3047 32.0659 11.3184 28.6694 11.3184 28.6694C11.3184 21.144 14.7236 15.0347 14.7236 15.0347C18.1289 12.5103 21.3447 12.5815 21.3447 12.5815L21.5811 12.8647C17.3242 14.0679 15.3857 15.9312 15.3857 15.9312C15.3857 15.9312 15.9053 15.648 16.7803 15.27C19.3105 14.1616 21.3213 13.8784 22.1514 13.7847C22.2839 13.7571 22.4185 13.7411 22.5537 13.7368C24.1383 13.5312 25.7418 13.5155 27.3301 13.6899C29.824 13.9764 32.2401 14.7371 34.4482 15.9312C34.4482 15.9312 32.5801 14.1587 28.5596 12.9575L28.8906 12.5806C28.8906 12.5806 32.1299 12.5093 35.5127 15.0376C35.5127 15.0376 38.918 21.147 38.918 28.6724C38.918 28.645 36.9307 32.0415 31.7051 32.2065Z"
    fill="#4C6176" />
  <path
    d="M20.7144 21.2896C19.3629 21.2896 18.2954 22.4491 18.2954 23.8917C18.2954 25.3343 19.3864 26.4939 20.7144 26.4939C22.0659 26.4939 23.1334 25.3353 23.1334 23.8917C23.1579 22.4462 22.0659 21.2896 20.7144 21.2896Z"
    fill="#4C6176" />
  <path
    d="M29.3458 21.2896C27.9943 21.2896 26.9268 22.4491 26.9268 23.8917C26.9268 25.3343 28.0178 26.4939 29.3458 26.4939C30.6983 26.4939 31.7648 25.3353 31.7648 23.8917C31.7648 22.4481 30.6748 21.2896 29.3458 21.2896Z"
    fill="#4C6176" />
</svg>