<svg width="50" height="50" viewBox="0 0 50 50" fill="none" xmlns="http://www.w3.org/2000/svg">
  <path
    d="M24.9971 3.12646C12.917 3.12646 3.12207 13.1753 3.12207 25.5581C3.12207 35.4702 9.3916 43.8686 18.083 46.8374C18.2049 46.8639 18.3294 46.877 18.4541 46.8765C19.2646 46.8765 19.5771 46.2808 19.5771 45.7632C19.5771 45.2261 19.5576 43.8198 19.5479 41.9448C18.8243 42.1144 18.084 42.2029 17.3408 42.2085C13.1318 42.2085 12.1748 38.937 12.1748 38.937C11.1787 36.3491 9.74316 35.6558 9.74316 35.6558C7.83887 34.3179 9.7334 34.2788 9.87988 34.2788H9.88965C12.0869 34.4741 13.2393 36.603 13.2393 36.603C14.333 38.5171 15.7979 39.0542 17.1064 39.0542C17.9717 39.0369 18.8236 38.8372 19.6064 38.4683C19.8018 37.0229 20.3682 36.0366 20.9932 35.4702C16.1396 34.9038 11.0322 32.98 11.0322 24.3862C11.0322 21.9351 11.8818 19.9331 13.2783 18.3706C13.0537 17.8042 12.3018 15.519 13.4932 12.4331C13.653 12.3949 13.8172 12.3784 13.9814 12.3843C14.7725 12.3843 16.5596 12.687 19.5088 14.7378C23.0923 13.7352 26.8823 13.7352 30.4658 14.7378C33.415 12.687 35.2021 12.3843 35.9932 12.3843C36.1574 12.3784 36.3216 12.3949 36.4814 12.4331C37.6729 15.519 36.9209 17.8042 36.6963 18.3706C38.0928 19.9429 38.9424 21.9448 38.9424 24.3862C38.9424 32.9995 33.8252 34.894 28.9521 35.4507C29.7334 36.144 30.4365 37.5112 30.4365 39.6011C30.4365 42.5991 30.4072 45.021 30.4072 45.7534C30.4072 46.2808 30.71 46.8765 31.5205 46.8765C31.6517 46.877 31.7826 46.8639 31.9111 46.8374C40.6123 43.8686 46.8721 35.4604 46.8721 25.5581C46.8721 13.1753 37.0771 3.12646 24.9971 3.12646Z"
    fill="#4C6176" />
</svg>