<svg width="50" height="50" viewBox="0 0 50 50" fill="none" xmlns="http://www.w3.org/2000/svg">
  <path
    d="M43.3745 3.12695H6.86182C4.8667 3.12695 3.12354 4.5625 3.12354 6.53418V43.1279C3.12354 45.1104 4.8667 46.877 6.86182 46.877H43.3638C45.3696 46.877 46.8735 45.0986 46.8735 43.1279V6.53418C46.8853 4.5625 45.3696 3.12695 43.3745 3.12695ZM16.6851 39.5947H10.4175V20.1074H16.6851V39.5947ZM13.7681 17.1445H13.7231C11.7173 17.1445 10.4185 15.6514 10.4185 13.7822C10.4185 11.8789 11.7515 10.4209 13.8022 10.4209C15.853 10.4209 17.1079 11.8682 17.1528 13.7822C17.1519 15.6514 15.853 17.1445 13.7681 17.1445ZM39.5913 39.5947H33.3237V28.9395C33.3237 26.3867 32.4116 24.6426 30.144 24.6426C28.4116 24.6426 27.3862 25.8145 26.9302 26.9561C26.7593 27.3662 26.7134 27.9248 26.7134 28.4951V39.5947H20.4458V20.1074H26.7134V22.8193C27.6255 21.5205 29.0503 19.6514 32.3657 19.6514C36.48 19.6514 39.5923 22.3633 39.5923 28.21L39.5913 39.5947Z"
    fill="#4C6176" />
</svg>